<svg xmlns="http://www.w3.org/2000/svg" viewBox="0 0 300 300" role="img" aria-labelledby="title desc">
  <title id="title">Challenger Runners Group Solapur logo</title>
  <desc id="desc">Green and black Challenger Runners Group Solapur mark with a running figure.</desc>
  <rect width="300" height="300" fill="#ffffff"/>
  <text x="150" y="38" text-anchor="middle" font-family="Arial, Helvetica, sans-serif" font-size="21" font-weight="800" letter-spacing="1.8" fill="#111827">CHALLENGER</text>
  <path d="M78 78c40-22 104-24 145-2 1 51-22 102-72 132-48-28-73-79-73-130Z" fill="#8bc923"/>
  <path d="M78 139c31 4 62 16 88 36-6 12-15 23-27 33-34-19-55-45-61-69Z" fill="#111827"/>
  <path d="M142 75c15-5 35 0 43 13 4 6 7 13 12 18l22-2c6 0 10 4 10 9 0 4-3 8-8 9l-30 4c-8 1-14-2-18-9l-9-14-21 23 24 17c6 4 8 12 5 19l-18 40c-3 7-11 10-18 7-6-3-9-10-6-17l14-31-21-13-24 24c-5 5-13 5-18 0s-5-13 0-18l35-36c3-3 7-6 11-7l-2-2-25 6c-6 1-11-2-13-8-1-6 2-11 8-13l35-9Z" fill="#ffffff"/>
  <circle cx="182" cy="66" r="15" fill="#ffffff"/>
  <path d="M184 231c23-16 39-35 49-58" fill="none" stroke="#9d238a" stroke-width="12" stroke-linecap="round"/>
  <text x="226" y="184" transform="rotate(-62 226 184)" text-anchor="middle" font-family="Arial, Helvetica, sans-serif" font-size="19" font-weight="800" fill="#9d238a">RUNNERS GROUP</text>
  <text x="150" y="271" text-anchor="middle" font-family="Arial, Helvetica, sans-serif" font-size="26" font-weight="900" letter-spacing="1.4" fill="#111827">SOLAPUR</text>
</svg>
